Raleway-v4020-Italic.ufo
<glyph name="quotesingle" format="2">
  <advance width="206"/>
  <unicode hex="0027"/>
  <outline>
    <contour>
      <point x="106" y="501" type="line"/>
      <point x="182" y="501" type="line"/>
      <point x="228" y="718" type="line"/>
      <point x="152" y="718" type="line"/>
    </contour>
  </outline>
</glyph>
<glyph name="parenleft" format="2">
  <advance width="278"/>
  <unicode hex="0028"/>
  <outline>
    <contour>
      <point x="42" y="437"/>
      <point x="42" y="261" type="curve" smooth="yes"/>
      <point x="42" y="163"/>
      <point x="68" y="50"/>
      <point x="107" y="-42" type="curve"/>
      <point x="179" y="-8" type="line"/>
      <point x="145" y="79"/>
      <point x="125" y="186"/>
      <point x="125" y="268" type="curve" smooth="yes"/>
      <point x="125" y="434"/>
      <point x="261" y="626"/>
      <point x="334" y="714" type="curve"/>
      <point x="273" y="744" type="line"/>
      <point x="145" y="581"/>
    </contour>
  </outline>
</glyph>
<glyph name="parenright" format="2">
  <advance width="278"/>
  <unicode hex="0029"/>
  <outline>
    <contour>
      <point x="256" y="262"/>
      <point x="256" y="432" type="curve" smooth="yes"/>
      <point x="256" y="533"/>
      <point x="229" y="646"/>
      <point x="194" y="744" type="curve"/>
      <point x="119" y="714" type="line"/>
      <point x="143" y="656"/>
      <point x="172" y="530"/>
      <point x="172" y="424" type="curve" smooth="yes"/>
      <point x="172" y="278"/>
      <point x="87" y="138"/>
      <point x="-32" y="-8" type="curve"/>
      <point x="26" y="-42" type="line"/>
      <point x="155" y="111"/>
    </contour>
  </outline>
</glyph>
<glyph name="asterisk" format="2">
  <advance width="322"/>
  <unicode hex="002A"/>
  <outline>
    <contour>
      <point x="131" y="538" type="line"/>
      <point x="162" y="513" type="line"/>
      <point x="219" y="580" type="line"/>
      <point x="245" y="513" type="line"/>
      <point x="288" y="538" type="line"/>
      <point x="259" y="603" type="line"/>
      <point x="329" y="625" type="line"/>
      <point x="326" y="667" type="line"/>
      <point x="253" y="640" type="line"/>
      <point x="272" y="714" type="line"/>
      <point x="221" y="714" type="line"/>
      <point x="209" y="640" type="line"/>
      <point x="148" y="667" type="line"/>
      <point x="126" y="625" type="line"/>
      <point x="187" y="603" type="line"/>
    </contour>
  </outline>
</glyph>
<glyph name="plus" format="2">
  <advance width="416"/>
  <unicode hex="002B"/>
  <outline>
    <contour>
      <point x="375" y="391" type="line"/>
      <point x="257" y="391" type="line"/>
      <point x="257" y="519" type="line"/>
      <point x="177" y="519" type="line"/>
      <point x="177" y="391" type="line"/>
      <point x="59" y="391" type="line"/>
      <point x="59" y="319" type="line"/>
      <point x="177" y="319" type="line"/>
      <point x="177" y="191" type="line"/>
      <point x="257" y="191" type="line"/>
      <point x="257" y="319" type="line"/>
      <point x="375" y="319" type="line"/>
    </contour>
  </outline>
</glyph>
<glyph name="two" format="2">
  <advance width="514"/>
  <unicode hex="0032"/>
  <outline>
    <contour>
      <point x="2" y="107"/>
      <point x="-21" y="0" type="curve"/>
      <point x="405" y="0" type="line"/>
      <point x="422" y="80" type="line"/>
      <point x="104" y="80" type="line"/>
      <point x="133" y="155"/>
      <point x="234" y="208"/>
      <point x="295" y="237" type="curve" smooth="yes"/>
      <point x="365" y="270"/>
      <point x="488" y="327"/>
      <point x="488" y="447" type="curve" smooth="yes"/>
      <point x="488" y="522"/>
      <point x="431" y="581"/>
      <point x="328" y="581" type="curve" smooth="yes"/>
      <point x="210" y="581"/>
      <point x="117" y="509"/>
      <point x="90" y="486" type="curve"/>
      <point x="133" y="422" type="line"/>
      <point x="164" y="452"/>
      <point x="220" y="503"/>
      <point x="295" y="503" type="curve" smooth="yes"/>
      <point x="359" y="503"/>
      <point x="389" y="464"/>
      <point x="389" y="424" type="curve" smooth="yes"/>
      <point x="389" y="344"/>
      <point x="283" y="310"/>
      <point x="189" y="261" type="curve" smooth="yes"/>
      <point x="45" y="186"/>
    </contour>
  </outline>
</glyph>
<glyph name="semicolon" format="2">
  <advance width="202"/>
  <unicode hex="003B"/>
  <outline>
    <contour>
      <point x="85" y="406" type="line"/>
      <point x="157" y="406" type="line"/>
      <point x="181" y="518" type="line"/>
      <point x="108" y="518" type="line"/>
    </contour>
    <contour>
      <point x="-9" y="-81" type="line"/>
      <point x="34" y="-81" type="line"/>
      <point x="82" y="8" type="line"/>
      <point x="104" y="112" type="line"/>
      <point x="22" y="112" type="line"/>
      <point x="0" y="8" type="line"/>
      <point x="30" y="8" type="line"/>
    </contour>
  </outline>
</glyph>
<glyph name="equal" format="2">
  <advance width="479"/>
  <unicode hex="003D"/>
  <outline>
    <contour>
      <point x="81" y="179" type="line"/>
      <point x="386" y="179" type="line"/>
      <point x="386" y="239" type="line"/>
      <point x="81" y="239" type="line"/>
    </contour>
    <contour>
      <point x="81" y="313" type="line"/>
      <point x="386" y="313" type="line"/>
      <point x="386" y="373" type="line"/>
      <point x="81" y="373" type="line"/>
    </contour>
  </outline>
</glyph>
<glyph name="greater" format="2">
  <advance width="546"/>
  <unicode hex="003E"/>
  <outline>
    <contour>
      <point x="498" y="234" type="line"/>
      <point x="498" y="280" type="line"/>
      <point x="78" y="533" type="line"/>
      <point x="78" y="439" type="line"/>
      <point x="370" y="259" type="line"/>
      <point x="78" y="82" type="line"/>
      <point x="78" y="-16" type="line"/>
    </contour>
  </outline>
</glyph>
<glyph name="D" format="2">
  <advance width="692"/>
  <unicode hex="0044"/>
  <anchor x="241" y="0" name="bottom"/>
  <anchor x="319" y="355" name="center"/>
  <anchor x="391" y="708" name="top"/>
  <outline>
    <contour>
      <point x="171" y="710" type="line"/>
      <point x="20" y="0" type="line"/>
      <point x="255" y="0" type="line"/>
      <point x="492" y="0"/>
      <point x="668" y="186"/>
      <point x="668" y="437" type="curve" smooth="yes"/>
      <point x="668" y="590"/>
      <point x="585" y="710"/>
      <point x="406" y="710" type="curve" smooth="yes"/>
    </contour>
    <contour>
      <point x="272" y="80" type="curve" smooth="yes"/>
      <point x="127" y="80" type="line"/>
      <point x="244" y="630" type="line"/>
      <point x="389" y="630" type="line" smooth="yes"/>
      <point x="512" y="630"/>
      <point x="575" y="544"/>
      <point x="575" y="423" type="curve" smooth="yes"/>
      <point x="575" y="242"/>
      <point x="458" y="80"/>
    </contour>
  </outline>
</glyph>
<glyph name="J" format="2">
  <advance width="472"/>
  <unicode hex="004A"/>
  <anchor x="439" y="708" name="top"/>
  <outline>
    <contour>
      <point x="40" y="-11"/>
      <point x="98" y="-11" type="curve" smooth="yes"/>
      <point x="304" y="-11"/>
      <point x="360" y="133"/>
      <point x="406" y="349" type="curve" smooth="yes"/>
      <point x="483" y="709" type="line"/>
      <point x="393" y="709" type="line"/>
      <point x="316" y="349" type="line" smooth="yes"/>
      <point x="277" y="168"/>
      <point x="241" y="70"/>
      <point x="115" y="70" type="curve" smooth="yes"/>
      <point x="61" y="70"/>
      <point x="19" y="88"/>
      <point x="-1" y="106" type="curve"/>
      <point x="-39" y="33" type="line"/>
      <point x="-5" y="4"/>
    </contour>
  </outline>
</glyph>
<glyph name="N" format="2">
  <advance width="739"/>
  <unicode hex="004E"/>
  <anchor x="316" y="0" name="bottom"/>
  <anchor x="472" y="708" name="top"/>
  <outline>
    <contour>
      <point x="171" y="710" type="line"/>
      <point x="20" y="0" type="line"/>
      <point x="110" y="0" type="line"/>
      <point x="225" y="542" type="line"/>
      <point x="516" y="0" type="line"/>
      <point x="591" y="0" type="line"/>
      <point x="742" y="709" type="line"/>
      <point x="652" y="709" type="line"/>
      <point x="535" y="157" type="line"/>
      <point x="241" y="710" type="line"/>
    </contour>
  </outline>
</glyph>
<glyph name="O" format="2">
  <advance width="721"/>
  <unicode hex="004F"/>
  <anchor x="314" y="0" name="bottom"/>
  <anchor x="361" y="355" name="center"/>
  <anchor x="336" y="0" name="ogonek"/>
  <anchor x="451" y="708" name="top"/>
  <anchor x="20" y="710" name="topleft"/>
  <anchor x="555" y="674" name="topright"/>
  <outline>
    <contour>
      <point x="134" y="-5"/>
      <point x="295" y="-5" type="curve" smooth="yes"/>
      <point x="504" y="-5"/>
      <point x="699" y="205"/>
      <point x="699" y="420" type="curve" smooth="yes"/>
      <point x="699" y="571"/>
      <point x="611" y="715"/>
      <point x="450" y="715" type="curve" smooth="yes"/>
      <point x="241" y="715"/>
      <point x="44" y="505"/>
      <point x="44" y="288" type="curve" smooth="yes"/>
      <point x="44" y="135"/>
    </contour>
    <contour>
      <point x="477" y="76"/>
      <point x="313" y="76" type="curve" smooth="yes"/>
      <point x="198" y="76"/>
      <point x="136" y="178"/>
      <point x="136" y="296" type="curve" smooth="yes"/>
      <point x="136" y="456"/>
      <point x="267" y="633"/>
      <point x="431" y="633" type="curve" smooth="yes"/>
      <point x="544" y="633"/>
      <point x="607" y="531"/>
      <point x="607" y="413" type="curve" smooth="yes"/>
      <point x="607" y="255"/>
    </contour>
  </outline>
</glyph>
<glyph name="U" format="2">
  <advance width="725"/>
  <unicode hex="0055"/>
  <anchor x="303" y="0" name="bottom"/>
  <anchor x="347" y="0" name="ogonek"/>
  <anchor x="444" y="708" name="top"/>
  <anchor x="748" y="674" name="topright"/>
  <outline>
    <contour>
      <point x="131" y="-5"/>
      <point x="298" y="-5" type="curve" smooth="yes"/>
      <point x="505" y="-5"/>
      <point x="620" y="159"/>
      <point x="661" y="351" type="curve" smooth="yes"/>
      <point x="737" y="710" type="line"/>
      <point x="647" y="710" type="line"/>
      <point x="571" y="351" type="line" smooth="yes"/>
      <point x="542" y="215"/>
      <point x="468" y="76"/>
      <point x="314" y="76" type="curve" smooth="yes"/>
      <point x="201" y="76"/>
      <point x="163" y="151"/>
      <point x="163" y="247" type="curve" smooth="yes"/>
      <point x="163" y="280"/>
      <point x="167" y="315"/>
      <point x="175" y="351" type="curve" smooth="yes"/>
      <point x="251" y="710" type="line"/>
      <point x="161" y="710" type="line"/>
      <point x="85" y="351" type="line" smooth="yes"/>
      <point x="76" y="310"/>
      <point x="71" y="270"/>
      <point x="71" y="232" type="curve" smooth="yes"/>
      <point x="71" y="100"/>
    </contour>
  </outline>
</glyph>
<glyph name="V" format="2">
  <advance width="650"/>
  <unicode hex="0056"/>
  <outline>
    <contour>
      <point x="95" y="710" type="line"/>
      <point x="219" y="0" type="line"/>
      <point x="297" y="0" type="line"/>
      <point x="722" y="710" type="line"/>
      <point x="627" y="710" type="line"/>
      <point x="282" y="113" type="line"/>
      <point x="190" y="710" type="line"/>
    </contour>
  </outline>
</glyph>
<glyph name="X" format="2">
  <advance width="610"/>
  <unicode hex="0058"/>
  <outline>
    <contour>
      <point x="267" y="350" type="line"/>
      <point x="-52" y="0" type="line"/>
      <point x="48" y="0" type="line"/>
      <point x="302" y="286" type="line"/>
      <point x="435" y="0" type="line"/>
      <point x="534" y="0" type="line"/>
      <point x="364" y="350" type="line"/>
      <point x="693" y="710" type="line"/>
      <point x="594" y="710" type="line"/>
      <point x="330" y="414" type="line"/>
      <point x="191" y="710" type="line"/>
      <point x="91" y="710" type="line"/>
    </contour>
  </outline>
</glyph>
<glyph name="b" format="2">
  <advance width="599"/>
  <unicode hex="0062"/>
  <outline>
    <contour>
      <point x="181" y="-10"/>
      <point x="263" y="-10" type="curve" smooth="yes"/>
      <point x="413" y="-10"/>
      <point x="560" y="142"/>
      <point x="560" y="318" type="curve" smooth="yes"/>
      <point x="560" y="430"/>
      <point x="501" y="531"/>
      <point x="386" y="531" type="curve" smooth="yes"/>
      <point x="309" y="531"/>
      <point x="237" y="486"/>
      <point x="182" y="418" type="curve"/>
      <point x="248" y="730" type="line"/>
      <point x="160" y="730" type="line"/>
      <point x="5" y="0" type="line"/>
      <point x="83" y="0" type="line"/>
      <point x="104" y="98" type="line"/>
      <point x="126" y="35"/>
    </contour>
    <contour>
      <point x="365" y="66"/>
      <point x="260" y="66" type="curve" smooth="yes"/>
      <point x="190" y="66"/>
      <point x="132" y="118"/>
      <point x="132" y="182" type="curve"/>
      <point x="164" y="333" type="line"/>
      <point x="207" y="399"/>
      <point x="275" y="455"/>
      <point x="344" y="455" type="curve" smooth="yes"/>
      <point x="423" y="455"/>
      <point x="467" y="382"/>
      <point x="467" y="302" type="curve" smooth="yes"/>
      <point x="467" y="181"/>
    </contour>
  </outline>
</glyph>
<glyph name="e" format="2">
  <advance width="539"/>
  <unicode hex="0065"/>
  <anchor x="230" y="0" name="bottom"/>
  <anchor x="300" y="0" name="ogonek"/>
  <anchor x="341" y="522" name="top"/>
  <outline>
    <contour>
      <point x="97" y="-10"/>
      <point x="228" y="-10" type="curve" smooth="yes"/>
      <point x="326" y="-10"/>
      <point x="423" y="45"/>
      <point x="472" y="122" type="curve"/>
      <point x="401" y="143" type="line"/>
      <point x="368" y="90"/>
      <point x="303" y="56"/>
      <point x="242" y="56" type="curve" smooth="yes"/>
      <point x="153" y="56"/>
      <point x="112" y="128"/>
      <point x="112" y="211" type="curve" smooth="yes"/>
      <point x="112" y="317"/>
      <point x="180" y="465"/>
      <point x="333" y="465" type="curve" smooth="yes"/>
      <point x="394" y="465"/>
      <point x="434" y="442"/>
      <point x="434" y="391" type="curve" smooth="yes"/>
      <point x="434" y="333"/>
      <point x="382" y="290"/>
      <point x="231" y="290" type="curve" smooth="yes"/>
      <point x="198" y="290"/>
      <point x="160" y="292"/>
      <point x="116" y="296" type="curve"/>
      <point x="92" y="236" type="line"/>
      <point x="144" y="231"/>
      <point x="191" y="229"/>
      <point x="228" y="229" type="curve" smooth="yes"/>
      <point x="421" y="229"/>
      <point x="513" y="284"/>
      <point x="513" y="390" type="curve" smooth="yes"/>
      <point x="513" y="483"/>
      <point x="441" y="531"/>
      <point x="339" y="531" type="curve" smooth="yes"/>
      <point x="158" y="531"/>
      <point x="23" y="378"/>
      <point x="23" y="211" type="curve" smooth="yes"/>
      <point x="23" y="87"/>
    </contour>
  </outline>
</glyph>
<glyph name="m" format="2">
  <advance width="883"/>
  <unicode hex="006D"/>
  <anchor x="387" y="0" name="bottom"/>
  <anchor x="497" y="522" name="top"/>
  <outline>
    <contour>
      <point x="116" y="522" type="line"/>
      <point x="5" y="0" type="line"/>
      <point x="93" y="0" type="line"/>
      <point x="160" y="315" type="line"/>
      <point x="200" y="397"/>
      <point x="270" y="452"/>
      <point x="336" y="452" type="curve" smooth="yes"/>
      <point x="382" y="452"/>
      <point x="407" y="425"/>
      <point x="407" y="366" type="curve" smooth="yes"/>
      <point x="407" y="345"/>
      <point x="404" y="321"/>
      <point x="398" y="292" type="curve" smooth="yes"/>
      <point x="336" y="0" type="line"/>
      <point x="424" y="0" type="line"/>
      <point x="490" y="314" type="line"/>
      <point x="530" y="395"/>
      <point x="600" y="452"/>
      <point x="666" y="452" type="curve" smooth="yes"/>
      <point x="713" y="452"/>
      <point x="738" y="424"/>
      <point x="738" y="365" type="curve" smooth="yes"/>
      <point x="738" y="344"/>
      <point x="735" y="320"/>
      <point x="729" y="292" type="curve" smooth="yes"/>
      <point x="667" y="0" type="line"/>
      <point x="755" y="0" type="line"/>
      <point x="822" y="312" type="line" smooth="yes"/>
      <point x="829" y="345"/>
      <point x="833" y="376"/>
      <point x="833" y="404" type="curve" smooth="yes"/>
      <point x="833" y="480"/>
      <point x="802" y="531"/>
      <point x="717" y="531" type="curve" smooth="yes"/>
      <point x="638" y="531"/>
      <point x="564" y="487"/>
      <point x="503" y="404" type="curve"/>
      <point x="501" y="485"/>
      <point x="459" y="531"/>
      <point x="382" y="531" type="curve" smooth="yes"/>
      <point x="305" y="531"/>
      <point x="225" y="484"/>
      <point x="172" y="410" type="curve"/>
      <point x="196" y="522" type="line"/>
    </contour>
  </outline>
</glyph>
<glyph name="x" format="2">
  <advance width="492"/>
  <unicode hex="0078"/>
  <outline>
    <contour>
      <point x="189" y="260" type="line"/>
      <point x="-52" y="0" type="line"/>
      <point x="41" y="0" type="line"/>
      <point x="214" y="191" type="line"/>
      <point x="225" y="206" type="line"/>
      <point x="231" y="191" type="line"/>
      <point x="323" y="0" type="line"/>
      <point x="416" y="0" type="line"/>
      <point x="286" y="260" type="line"/>
      <point x="526" y="522" type="line"/>
      <point x="433" y="522" type="line"/>
      <point x="260" y="330" type="line"/>
      <point x="248" y="314" type="line"/>
      <point x="244" y="330" type="line"/>
      <point x="152" y="522" type="line"/>
      <point x="60" y="522" type="line"/>
    </contour>
  </outline>
</glyph>
<glyph name="z" format="2">
  <advance width="470"/>
  <unicode hex="007A"/>
  <anchor x="180" y="0" name="bottom"/>
  <anchor x="290" y="522" name="top"/>
  <outline>
    <contour>
      <point x="-23" y="57" type="line"/>
      <point x="-35" y="0" type="line"/>
      <point x="373" y="0" type="line"/>
      <point x="387" y="64" type="line"/>
      <point x="79" y="64" type="line"/>
      <point x="471" y="465" type="line"/>
      <point x="483" y="522" type="line"/>
      <point x="85" y="522" type="line"/>
      <point x="71" y="458" type="line"/>
      <point x="371" y="458" type="line"/>
    </contour>
  </outline>
</glyph>
<glyph name="cent" format="2">
  <advance width="548"/>
  <unicode hex="00A2"/>
  <outline>
    <contour>
      <point x="176" y="-120" type="line"/>
      <point x="220" y="-120" type="line"/>
      <point x="243" y="-10" type="line"/>
      <point x="310" y="-10"/>
      <point x="422" y="34"/>
      <point x="473" y="121" type="curve"/>
      <point x="392" y="147" type="line"/>
      <point x="370" y="102"/>
      <point x="304" y="72"/>
      <point x="260" y="68" type="curve"/>
      <point x="341" y="452" type="line"/>
      <point x="387" y="449"/>
      <point x="423" y="425"/>
      <point x="438" y="377" type="curve"/>
      <point x="529" y="404" type="line"/>
      <point x="507" y="481"/>
      <point x="449" y="527"/>
      <point x="358" y="530" type="curve"/>
      <point x="382" y="645" type="line"/>
      <point x="339" y="645" type="line"/>
      <point x="314" y="530" type="line"/>
      <point x="147" y="511"/>
      <point x="28" y="359"/>
      <point x="28" y="211" type="curve" smooth="yes"/>
      <point x="28" y="104"/>
      <point x="91" y="0"/>
      <point x="200" y="-9" type="curve"/>
    </contour>
    <contour>
      <point x="119" y="149"/>
      <point x="119" y="221" type="curve" smooth="yes"/>
      <point x="119" y="320"/>
      <point x="196" y="436"/>
      <point x="297" y="449" type="curve"/>
      <point x="217" y="72" type="line"/>
      <point x="156" y="85"/>
    </contour>
  </outline>
</glyph>
<glyph name="ae" format="2">
  <advance width="888"/>
  <unicode hex="00E6"/>
  <anchor x="456" y="522" name="top"/>
  <outline>
    <contour>
      <point x="46" y="-10"/>
      <point x="133" y="-10" type="curve" smooth="yes"/>
      <point x="197" y="-10"/>
      <point x="302" y="21"/>
      <point x="363" y="103" type="curve"/>
      <point x="392" y="35"/>
      <point x="457" y="-10"/>
      <point x="547" y="-10" type="curve" smooth="yes"/>
      <point x="648" y="-10"/>
      <point x="744" y="45"/>
      <point x="793" y="122" type="curve"/>
      <point x="721" y="143" type="line"/>
      <point x="690" y="91"/>
      <point x="624" y="56"/>
      <point x="563" y="56" type="curve" smooth="yes"/>
      <point x="483" y="56"/>
      <point x="426" y="115"/>
      <point x="426" y="201" type="curve" smooth="yes"/>
      <point x="426" y="212"/>
      <point x="427" y="221"/>
      <point x="428" y="231" type="curve"/>
      <point x="846" y="231" type="line"/>
      <point x="849" y="239"/>
      <point x="861" y="261"/>
      <point x="861" y="311" type="curve" smooth="yes"/>
      <point x="861" y="434"/>
      <point x="788" y="531"/>
      <point x="661" y="531" type="curve" smooth="yes"/>
      <point x="581" y="531"/>
      <point x="508" y="493"/>
      <point x="454" y="436" type="curve"/>
      <point x="435" y="496"/>
      <point x="383" y="531"/>
      <point x="303" y="531" type="curve" smooth="yes"/>
      <point x="237" y="531"/>
      <point x="168" y="508"/>
      <point x="94" y="463" type="curve"/>
      <point x="110" y="406" type="line"/>
      <point x="174" y="446"/>
      <point x="230" y="467"/>
      <point x="280" y="467" type="curve" smooth="yes"/>
      <point x="348" y="467"/>
      <point x="385" y="429"/>
      <point x="385" y="381" type="curve" smooth="yes"/>
      <point x="385" y="349"/>
      <point x="368" y="328"/>
      <point x="358" y="294" type="curve"/>
      <point x="326" y="306"/>
      <point x="283" y="314"/>
      <point x="240" y="314" type="curve" smooth="yes"/>
      <point x="103" y="314"/>
      <point x="-6" y="235"/>
      <point x="-6" y="124" type="curve" smooth="yes"/>
      <point x="-6" y="48"/>
    </contour>
    <contour>
      <point x="234" y="56"/>
      <point x="169" y="56" type="curve" smooth="yes"/>
      <point x="111" y="56"/>
      <point x="80" y="94"/>
      <point x="80" y="141" type="curve" smooth="yes"/>
      <point x="80" y="212"/>
      <point x="150" y="261"/>
      <point x="243" y="261" type="curve" smooth="yes"/>
      <point x="278" y="261"/>
      <point x="316" y="254"/>
      <point x="347" y="242" type="curve"/>
      <point x="344" y="227"/>
      <point x="342" y="206"/>
      <point x="342" y="188" type="curve" smooth="yes"/>
      <point x="342" y="175"/>
      <point x="343" y="164"/>
      <point x="345" y="155" type="curve"/>
      <point x="326" y="103"/>
    </contour>
    <contour>
      <point x="775" y="288" type="curve"/>
      <point x="439" y="288" type="line"/>
      <point x="467" y="391"/>
      <point x="552" y="465"/>
      <point x="644" y="465" type="curve" smooth="yes"/>
      <point x="726" y="465"/>
      <point x="777" y="407"/>
      <point x="777" y="321" type="curve" smooth="yes"/>
      <point x="777" y="311"/>
      <point x="777" y="299"/>
    </contour>
  </outline>
</glyph>
<glyph name="divide" format="2">
  <advance width="533"/>
  <unicode hex="00F7"/>
  <outline>
    <contour>
      <point x="225" y="405" type="line"/>
      <point x="300" y="405" type="line"/>
      <point x="300" y="507" type="line"/>
      <point x="225" y="507" type="line"/>
    </contour>
    <contour>
      <point x="225" y="66" type="line"/>
      <point x="300" y="66" type="line"/>
      <point x="300" y="168" type="line"/>
      <point x="225" y="168" type="line"/>
    </contour>
    <contour>
      <point x="61" y="251" type="line"/>
      <point x="464" y="251" type="line"/>
      <point x="464" y="323" type="line"/>
      <point x="61" y="323" type="line"/>
    </contour>
  </outline>
</glyph>
<glyph name="hbar" format="2">
  <advance width="567"/>
  <unicode hex="0127"/>
  <outline>
    <contour>
      <point x="75" y="657" type="line"/>
      <point x="63" y="601" type="line"/>
      <point x="319" y="601" type="line"/>
      <point x="331" y="657" type="line"/>
    </contour>
    <component base="h"/>
  </outline>
</glyph>
<glyph name="florin" format="2">
  <advance width="512"/>
  <unicode hex="0192"/>
  <outline>
    <contour>
      <point x="-1" y="-186"/>
      <point x="42" y="-186" type="curve" smooth="yes"/>
      <point x="124" y="-186"/>
      <point x="212" y="-118"/>
      <point x="233" y="-21" type="curve" smooth="yes"/>
      <point x="321" y="392" type="line"/>
      <point x="452" y="392" type="line"/>
      <point x="467" y="461" type="line"/>
      <point x="336" y="461" type="line"/>
      <point x="352" y="536" type="line" smooth="yes"/>
      <point x="370" y="619"/>
      <point x="408" y="665"/>
      <point x="462" y="665" type="curve" smooth="yes"/>
      <point x="487" y="665"/>
      <point x="514" y="656"/>
      <point x="529" y="643" type="curve"/>
      <point x="564" y="708" type="line"/>
      <point x="537" y="728"/>
      <point x="499" y="740"/>
      <point x="460" y="740" type="curve" smooth="yes"/>
      <point x="366" y="740"/>
      <point x="290" y="661"/>
      <point x="263" y="533" type="curve" smooth="yes"/>
      <point x="248" y="461" type="line"/>
      <point x="180" y="461" type="line"/>
      <point x="166" y="392" type="line"/>
      <point x="233" y="392" type="line"/>
      <point x="145" y="-23" type="line" smooth="yes"/>
      <point x="135" y="-72"/>
      <point x="89" y="-108"/>
      <point x="49" y="-108" type="curve" smooth="yes"/>
      <point x="26" y="-108"/>
      <point x="3" y="-102"/>
      <point x="-11" y="-85" type="curve"/>
      <point x="-64" y="-144" type="line"/>
      <point x="-39" y="-173"/>
    </contour>
  </outline>
</glyph>
<glyph name="circumflexcomb" format="2">
  <unicode hex="0302"/>
  <anchor x="234" y="522" name="_top"/>
  <anchor x="272" y="730" name="top"/>
  <outline>
    <contour>
      <point x="131" y="640" type="line"/>
      <point x="174" y="616" type="line"/>
      <point x="268" y="679" type="line"/>
      <point x="335" y="616" type="line"/>
      <point x="388" y="640" type="line"/>
      <point x="311" y="730" type="line"/>
      <point x="247" y="730" type="line"/>
    </contour>
  </outline>
</glyph>
<glyph name="dblgravecomb" format="2">
  <unicode hex="030F"/>
  <anchor x="278" y="521" name="_top"/>
  <outline>
    <contour>
      <point x="282" y="730" type="line"/>
      <point x="336" y="609" type="line"/>
      <point x="386" y="629" type="line"/>
      <point x="356" y="730" type="line"/>
    </contour>
    <contour>
      <point x="150" y="730" type="line"/>
      <point x="204" y="609" type="line"/>
      <point x="254" y="629" type="line"/>
      <point x="225" y="730" type="line"/>
    </contour>
  </outline>
</glyph>
<glyph name="strokeshortcomb" format="2">
  <unicode hex="0335"/>
  <anchor x="172" y="300" name="_center"/>
  <outline>
    <contour>
      <point x="52" y="272" type="line"/>
      <point x="278" y="272" type="line"/>
      <point x="292" y="328" type="line"/>
      <point x="66" y="328" type="line"/>
    </contour>
  </outline>
</glyph>
<glyph name="Dje-cy" format="2">
  <advance width="775"/>
  <unicode hex="0402"/>
  <outline>
    <contour>
      <point x="145" y="0" type="line"/>
      <point x="235" y="0" type="line"/>
      <point x="368" y="630" type="line"/>
      <point x="610" y="630" type="line"/>
      <point x="628" y="710" type="line"/>
      <point x="103" y="710" type="line"/>
      <point x="86" y="630" type="line"/>
      <point x="278" y="630" type="line"/>
    </contour>
    <contour>
      <point x="437" y="-8" type="curve" smooth="yes"/>
      <point x="577" y="-8"/>
      <point x="677" y="67"/>
      <point x="701" y="216" type="curve" smooth="yes"/>
      <point x="724" y="360"/>
      <point x="641" y="447"/>
      <point x="501" y="447" type="curve" smooth="yes"/>
      <point x="433" y="447"/>
      <point x="359" y="425"/>
      <point x="290" y="383" type="curve"/>
      <point x="278" y="302" type="line"/>
      <point x="347" y="347"/>
      <point x="416" y="369"/>
      <point x="479" y="369" type="curve" smooth="yes"/>
      <point x="567" y="369"/>
      <point x="626" y="316"/>
      <point x="609" y="216" type="curve" smooth="yes"/>
      <point x="592" y="115"/>
      <point x="529" y="68"/>
      <point x="441" y="68" type="curve" smooth="yes"/>
      <point x="411" y="68"/>
      <point x="390" y="72"/>
      <point x="365" y="77" type="curve"/>
      <point x="346" y="5" type="line"/>
      <point x="376" y="-4"/>
      <point x="407" y="-8"/>
    </contour>
  </outline>
</glyph>
<glyph name="Nje-cy" format="2">
  <advance width="1000"/>
  <unicode hex="040A"/>
  <guideline x="584" y="212" angle="78.2066"/>
  <outline>
    <contour>
      <point x="20" y="0" type="line"/>
      <point x="110" y="0" type="line"/>
      <point x="181" y="332" type="line"/>
      <point x="519" y="332" type="line"/>
      <point x="449" y="0" type="line"/>
      <point x="678" y="0" type="line" smooth="yes"/>
      <point x="829" y="0"/>
      <point x="925" y="93"/>
      <point x="944" y="213" type="curve" smooth="yes"/>
      <point x="965" y="339"/>
      <point x="899" y="425"/>
      <point x="744" y="425" type="curve" smooth="yes"/>
      <point x="630" y="425" type="line"/>
      <point x="689" y="710" type="line"/>
      <point x="599" y="710" type="line"/>
      <point x="536" y="412" type="line"/>
      <point x="197" y="412" type="line"/>
      <point x="261" y="710" type="line"/>
      <point x="171" y="710" type="line"/>
    </contour>
    <contour>
      <point x="556" y="79" type="line"/>
      <point x="612" y="346" type="line"/>
      <point x="726" y="346" type="line" smooth="yes"/>
      <point x="840" y="346"/>
      <point x="865" y="282"/>
      <point x="852" y="213" type="curve" smooth="yes"/>
      <point x="839" y="142"/>
      <point x="780" y="79"/>
      <point x="678" y="79" type="curve" smooth="yes"/>
    </contour>
  </outline>
</glyph>
<glyph name="Be-cy" format="2">
  <advance width="666"/>
  <unicode hex="0411"/>
  <outline>
    <contour>
      <point x="20" y="0" type="line"/>
      <point x="357" y="0" type="line" smooth="yes"/>
      <point x="508" y="0"/>
      <point x="597" y="90"/>
      <point x="616" y="208" type="curve" smooth="yes"/>
      <point x="636" y="326"/>
      <point x="573" y="407"/>
      <point x="417" y="407" type="curve" smooth="yes"/>
      <point x="197" y="407" type="line"/>
      <point x="244" y="631" type="line"/>
      <point x="641" y="631" type="line"/>
      <point x="657" y="710" type="line"/>
      <point x="171" y="710" type="line"/>
    </contour>
    <contour>
      <point x="127" y="78" type="line"/>
      <point x="181" y="335" type="line"/>
      <point x="398" y="335" type="line" smooth="yes"/>
      <point x="514" y="335"/>
      <point x="536" y="275"/>
      <point x="524" y="211" type="curve" smooth="yes"/>
      <point x="513" y="144"/>
      <point x="462" y="78"/>
      <point x="357" y="78" type="curve" smooth="yes"/>
    </contour>
  </outline>
</glyph>
<glyph name="El-cy" format="2">
  <advance width="743"/>
  <unicode hex="041B"/>
  <outline>
    <contour>
      <point x="-10" y="-2" type="line"/>
      <point x="157" y="-2"/>
      <point x="240" y="101"/>
      <point x="333" y="483" type="curve" smooth="yes"/>
      <point x="368" y="630" type="line"/>
      <point x="640" y="630" type="line"/>
      <point x="506" y="0" type="line"/>
      <point x="596" y="0" type="line"/>
      <point x="746" y="710" type="line"/>
      <point x="301" y="710" type="line"/>
      <point x="252" y="506" type="line" smooth="yes"/>
      <point x="169" y="166"/>
      <point x="105" y="77"/>
      <point x="6" y="77" type="curve"/>
    </contour>
  </outline>
</glyph>
<glyph name="O-cy" format="2">
  <advance width="765"/>
  <unicode hex="041E"/>
  <anchor x="463" y="710" name="top"/>
  <outline>
    <contour>
      <point x="342" y="-5" type="curve" smooth="yes"/>
      <point x="539" y="-5"/>
      <point x="710" y="159"/>
      <point x="736" y="354" type="curve" smooth="yes"/>
      <point x="761" y="538"/>
      <point x="650" y="715"/>
      <point x="446" y="715" type="curve" smooth="yes"/>
      <point x="249" y="715"/>
      <point x="78" y="544"/>
      <point x="51" y="355" type="curve" smooth="yes"/>
      <point x="26" y="173"/>
      <point x="139" y="-5"/>
    </contour>
    <contour>
      <point x="355" y="76" type="curve" smooth="yes"/>
      <point x="203" y="76"/>
      <point x="122" y="210"/>
      <point x="142" y="355" type="curve" smooth="yes"/>
      <point x="162" y="493"/>
      <point x="277" y="633"/>
      <point x="433" y="633" type="curve" smooth="yes"/>
      <point x="583" y="633"/>
      <point x="666" y="506"/>
      <point x="645" y="355" type="curve" smooth="yes"/>
      <point x="626" y="218"/>
      <point x="511" y="76"/>
    </contour>
  </outline>
</glyph>
<glyph name="Pe-cy" format="2">
  <advance width="714"/>
  <unicode hex="041F"/>
  <anchor x="498" y="0" name="bottomright"/>
  <outline>
    <contour>
      <point x="20" y="0" type="line"/>
      <point x="110" y="0" type="line"/>
      <point x="243" y="630" type="line"/>
      <point x="611" y="630" type="line"/>
      <point x="477" y="0" type="line"/>
      <point x="567" y="0" type="line"/>
      <point x="717" y="710" type="line"/>
      <point x="170" y="710" type="line"/>
    </contour>
  </outline>
</glyph>
<glyph name="U-cy" format="2">
  <advance width="629"/>
  <unicode hex="0423"/>
  <anchor x="387" y="710" name="top"/>
  <outline>
    <contour>
      <point x="101" y="0" type="line"/>
      <point x="135" y="0" type="line" smooth="yes"/>
      <point x="240" y="0"/>
      <point x="294" y="41"/>
      <point x="349" y="142" type="curve" smooth="yes"/>
      <point x="660" y="710" type="line"/>
      <point x="572" y="710" type="line"/>
      <point x="331" y="253" type="line"/>
      <point x="171" y="710" type="line"/>
      <point x="85" y="710" type="line"/>
      <point x="286" y="166" type="line"/>
      <point x="280" y="156" type="line"/>
      <point x="251" y="101"/>
      <point x="210" y="76"/>
      <point x="155" y="76" type="curve" smooth="yes"/>
      <point x="117" y="76" type="line"/>
    </contour>
  </outline>
</glyph>
<glyph name="Hardsign-cy" format="2">
  <advance width="701"/>
  <unicode hex="042A"/>
  <outline>
    <contour>
      <point x="136" y="0" type="line"/>
      <point x="387" y="0" type="line" smooth="yes"/>
      <point x="536" y="0"/>
      <point x="632" y="96"/>
      <point x="652" y="221" type="curve" smooth="yes"/>
      <point x="673" y="352"/>
      <point x="607" y="441"/>
      <point x="452" y="441" type="curve" smooth="yes"/>
      <point x="319" y="441" type="line"/>
      <point x="376" y="710" type="line"/>
      <point x="103" y="710" type="line"/>
      <point x="87" y="634" type="line"/>
      <point x="270" y="634" type="line"/>
    </contour>
    <contour>
      <point x="243" y="79" type="line"/>
      <point x="302" y="362" type="line"/>
      <point x="434" y="362" type="line" smooth="yes"/>
      <point x="548" y="362"/>
      <point x="573" y="294"/>
      <point x="560" y="221" type="curve" smooth="yes"/>
      <point x="547" y="146"/>
      <point x="492" y="79"/>
      <point x="387" y="79" type="curve" smooth="yes"/>
    </contour>
  </outline>
</glyph>
<glyph name="Iu-cy" format="2">
  <advance width="1023"/>
  <unicode hex="042E"/>
  <outline>
    <contour>
      <point x="20" y="0" type="line"/>
      <point x="110" y="0" type="line"/>
      <point x="177" y="317" type="line"/>
      <point x="340" y="317" type="line"/>
      <point x="356" y="397" type="line"/>
      <point x="193" y="397" type="line"/>
      <point x="260" y="710" type="line"/>
      <point x="170" y="710" type="line"/>
    </contour>
    <component base="O-cy" xOffset="258"/>
  </outline>
</glyph>
<glyph name="be-cy" format="2">
  <advance width="609"/>
  <unicode hex="0431"/>
  <outline>
    <contour>
      <point x="276" y="-10" type="curve" smooth="yes"/>
      <point x="436" y="-10"/>
      <point x="539" y="92"/>
      <point x="562" y="244" type="curve" smooth="yes"/>
      <point x="583" y="386"/>
      <point x="514" y="485"/>
      <point x="375" y="485" type="curve" smooth="yes"/>
      <point x="286" y="485"/>
      <point x="211" y="444"/>
      <point x="166" y="373" type="curve"/>
      <point x="208" y="526"/>
      <point x="265" y="597"/>
      <point x="400" y="621" type="curve" smooth="yes"/>
      <point x="537" y="645"/>
      <point x="597" y="653"/>
      <point x="619" y="738" type="curve"/>
      <point x="559" y="763" type="line"/>
      <point x="535" y="715"/>
      <point x="461" y="718"/>
      <point x="386" y="702" type="curve" smooth="yes"/>
      <point x="216" y="670"/>
      <point x="119" y="562"/>
      <point x="72" y="288" type="curve" smooth="yes"/>
      <point x="39" y="103"/>
      <point x="111" y="-10"/>
    </contour>
    <contour>
      <point x="284" y="62" type="curve" smooth="yes"/>
      <point x="184" y="62"/>
      <point x="138" y="142"/>
      <point x="155" y="238" type="curve" smooth="yes"/>
      <point x="173" y="344"/>
      <point x="251" y="413"/>
      <point x="342" y="413" type="curve" smooth="yes"/>
      <point x="442" y="413"/>
      <point x="487" y="341"/>
      <point x="471" y="238" type="curve" smooth="yes"/>
      <point x="454" y="132"/>
      <point x="385" y="62"/>
    </contour>
  </outline>
</glyph>
<glyph name="ve-cy" format="2">
  <advance width="581"/>
  <unicode hex="0432"/>
  <outline>
    <contour>
      <point x="273" y="-9" type="curve" smooth="yes"/>
      <point x="404" y="-10"/>
      <point x="500" y="51"/>
      <point x="500" y="156" type="curve" smooth="yes"/>
      <point x="500" y="246"/>
      <point x="409" y="285"/>
      <point x="317" y="282" type="curve"/>
      <point x="294" y="249" type="line"/>
      <point x="363" y="249"/>
      <point x="412" y="222"/>
      <point x="412" y="157" type="curve" smooth="yes"/>
      <point x="412" y="92"/>
      <point x="357" y="56"/>
      <point x="277" y="57" type="curve" smooth="yes"/>
      <point x="158" y="58"/>
      <point x="126" y="123"/>
      <point x="145" y="255" type="curve" smooth="yes"/>
      <point x="164" y="388"/>
      <point x="243" y="464"/>
      <point x="352" y="464" type="curve" smooth="yes"/>
      <point x="412" y="464"/>
      <point x="440" y="438"/>
      <point x="440" y="397" type="curve" smooth="yes"/>
      <point x="440" y="336"/>
      <point x="380" y="294"/>
      <point x="248" y="292" type="curve" smooth="yes"/>
      <point x="209" y="292"/>
      <point x="165" y="295"/>
      <point x="116" y="302" type="curve"/>
      <point x="106" y="242" type="line"/>
      <point x="153" y="236"/>
      <point x="199" y="233"/>
      <point x="241" y="233" type="curve" smooth="yes"/>
      <point x="427" y="233"/>
      <point x="525" y="302"/>
      <point x="525" y="407" type="curve" smooth="yes"/>
      <point x="525" y="485"/>
      <point x="469" y="532"/>
      <point x="365" y="532" type="curve" smooth="yes"/>
      <point x="194" y="532"/>
      <point x="81" y="433"/>
      <point x="53" y="249" type="curve" smooth="yes"/>
      <point x="31" y="88"/>
      <point x="103" y="-8"/>
    </contour>
  </outline>
</glyph>
<glyph name="ie-cy" format="2">
  <advance width="557"/>
  <unicode hex="0435"/>
  <anchor x="337" y="522" name="top"/>
  <outline>
    <contour>
      <point x="255" y="-10" type="curve" smooth="yes"/>
      <point x="421" y="-10"/>
      <point x="487" y="108"/>
      <point x="487" y="108" type="curve"/>
      <point x="411" y="133" type="line"/>
      <point x="411" y="133"/>
      <point x="366" y="62"/>
      <point x="268" y="62" type="curve" smooth="yes"/>
      <point x="161" y="62"/>
      <point x="108" y="145"/>
      <point x="125" y="262" type="curve" smooth="yes"/>
      <point x="141" y="375"/>
      <point x="230" y="459"/>
      <point x="328" y="459" type="curve" smooth="yes"/>
      <point x="384" y="459"/>
      <point x="427" y="434"/>
      <point x="429" y="388" type="curve" smooth="yes"/>
      <point x="432" y="330"/>
      <point x="387" y="292"/>
      <point x="240" y="292" type="curve" smooth="yes"/>
      <point x="193" y="292"/>
      <point x="148" y="294"/>
      <point x="92" y="298" type="curve"/>
      <point x="75" y="233" type="line"/>
      <point x="139" y="228"/>
      <point x="192" y="226"/>
      <point x="242" y="226" type="curve" smooth="yes"/>
      <point x="436" y="226"/>
      <point x="521" y="285"/>
      <point x="521" y="390" type="curve" smooth="yes"/>
      <point x="521" y="484"/>
      <point x="436" y="531"/>
      <point x="341" y="531" type="curve" smooth="yes"/>
      <point x="183" y="531"/>
      <point x="60" y="409"/>
      <point x="40" y="262" type="curve" smooth="yes"/>
      <point x="20" y="115"/>
      <point x="97" y="-10"/>
    </contour>
  </outline>
</glyph>
<glyph name="el-cy" format="2">
  <advance width="542"/>
  <unicode hex="043B"/>
  <outline>
    <contour>
      <point x="-18" y="0" type="curve"/>
      <point x="68" y="0" type="line"/>
      <point x="122" y="146"/>
      <point x="197" y="295"/>
      <point x="322" y="441" type="curve"/>
      <point x="373" y="0" type="line"/>
      <point x="465" y="0" type="line"/>
      <point x="390" y="522" type="line"/>
      <point x="300" y="522" type="line"/>
      <point x="143" y="354"/>
      <point x="40" y="174"/>
    </contour>
  </outline>
</glyph>
<glyph name="o-cy" format="2">
  <advance width="611"/>
  <unicode hex="043E"/>
  <anchor x="360" y="520" name="top"/>
  <outline>
    <contour>
      <point x="265" y="-10" type="curve" smooth="yes"/>
      <point x="426" y="-10"/>
      <point x="547" y="115"/>
      <point x="567" y="260" type="curve" smooth="yes"/>
      <point x="587" y="406"/>
      <point x="497" y="531"/>
      <point x="341" y="531" type="curve" smooth="yes"/>
      <point x="186" y="531"/>
      <point x="60" y="406"/>
      <point x="40" y="260" type="curve" smooth="yes"/>
      <point x="20" y="115"/>
      <point x="108" y="-10"/>
    </contour>
    <contour>
      <point x="275" y="62" type="curve" smooth="yes"/>
      <point x="181" y="62"/>
      <point x="116" y="148"/>
      <point x="131" y="259" type="curve" smooth="yes"/>
      <point x="146" y="371"/>
      <point x="236" y="459"/>
      <point x="331" y="459" type="curve" smooth="yes"/>
      <point x="428" y="459"/>
      <point x="491" y="371"/>
      <point x="476" y="261" type="curve" smooth="yes"/>
      <point x="461" y="153"/>
      <point x="370" y="62"/>
    </contour>
  </outline>
</glyph>
<glyph name="pe-cy" format="2">
  <advance width="569"/>
  <unicode hex="043F"/>
  <anchor x="369" y="0" name="bottomright"/>
  <outline>
    <contour>
      <point x="13" y="0" type="line"/>
      <point x="101" y="0" type="line"/>
      <point x="197" y="453" type="line"/>
      <point x="453" y="453" type="line"/>
      <point x="357" y="0" type="line"/>
      <point x="445" y="0" type="line"/>
      <point x="556" y="522" type="line"/>
      <point x="123" y="522" type="line"/>
    </contour>
  </outline>
</glyph>
<glyph name="che-cy" format="2">
  <advance width="526"/>
  <unicode hex="0447"/>
  <anchor x="320" y="0" name="bottomright"/>
  <anchor x="257" y="223" name="center"/>
  <anchor x="321" y="522" name="top"/>
  <outline>
    <contour>
      <point x="312" y="0" type="line"/>
      <point x="402" y="0" type="line"/>
      <point x="513" y="522" type="line"/>
      <point x="425" y="522" type="line"/>
      <point x="372" y="275" type="line"/>
      <point x="343" y="259"/>
      <point x="295" y="248"/>
      <point x="252" y="248" type="curve" smooth="yes"/>
      <point x="178" y="248"/>
      <point x="144" y="284"/>
      <point x="162" y="370" type="curve" smooth="yes"/>
      <point x="196" y="522" type="line"/>
      <point x="107" y="522" type="line"/>
      <point x="71" y="358" type="line" smooth="yes"/>
      <point x="45" y="239"/>
      <point x="102" y="180"/>
      <point x="215" y="180" type="curve" smooth="yes"/>
      <point x="268" y="180"/>
      <point x="312" y="189"/>
      <point x="358" y="209" type="curve"/>
    </contour>
  </outline>
</glyph>
<glyph name="ereversed-cy" format="2">
  <advance width="577"/>
  <unicode hex="044D"/>
  <guideline x="219" y="266" angle="77.8285"/>
  <outline>
    <contour>
      <point x="230" y="-9" type="curve" smooth="yes"/>
      <point x="397" y="-9"/>
      <point x="511" y="125"/>
      <point x="534" y="263" type="curve" smooth="yes"/>
      <point x="555" y="397"/>
      <point x="482" y="531"/>
      <point x="311" y="531" type="curve" smooth="yes"/>
      <point x="209" y="531"/>
      <point x="127" y="483"/>
      <point x="77" y="411" type="curve"/>
      <point x="139" y="376" type="line"/>
      <point x="183" y="436"/>
      <point x="241" y="459"/>
      <point x="300" y="459" type="curve" smooth="yes"/>
      <point x="404" y="459"/>
      <point x="468" y="381"/>
      <point x="451" y="262" type="curve"/>
      <point x="433" y="152"/>
      <point x="339" y="62"/>
      <point x="237" y="62" type="curve" smooth="yes"/>
      <point x="172" y="62"/>
      <point x="118" y="90"/>
      <point x="95" y="150" type="curve"/>
      <point x="19" y="117" type="line"/>
      <point x="47" y="37"/>
      <point x="130" y="-9"/>
    </contour>
    <contour>
      <point x="211" y="233" type="line"/>
      <point x="476" y="233" type="line"/>
      <point x="490" y="301" type="line"/>
      <point x="226" y="301" type="line"/>
    </contour>
  </outline>
</glyph>
<glyph name="iu-cy" format="2">
  <advance width="828"/>
  <unicode hex="044E"/>
  <guideline x="184" y="391" angle="78.1444"/>
  <outline>
    <contour>
      <point x="165" y="302" type="line"/>
      <point x="211" y="522" type="line"/>
      <point x="123" y="522" type="line"/>
      <point x="13" y="0" type="line"/>
      <point x="101" y="0" type="line"/>
      <point x="150" y="233" type="line"/>
      <point x="281" y="233" type="line"/>
      <point x="296" y="302" type="line"/>
    </contour>
    <component base="o-cy" xOffset="217"/>
  </outline>
</glyph>
<glyph name="yusbig-cy" format="2">
  <advance width="782"/>
  <unicode hex="046B"/>
  <outline>
    <contour>
      <point x="-35" y="0" type="line"/>
      <point x="68" y="0" type="line"/>
      <point x="286" y="228" type="line"/>
      <point x="342" y="228" type="line"/>
      <point x="294" y="0" type="line"/>
      <point x="382" y="0" type="line"/>
      <point x="430" y="228" type="line"/>
      <point x="485" y="228" type="line"/>
      <point x="620" y="0" type="line"/>
      <point x="715" y="0" type="line"/>
      <point x="552" y="269" type="line"/>
      <point x="789" y="522" type="line"/>
      <point x="82" y="522" type="line"/>
      <point x="226" y="269" type="line"/>
    </contour>
    <contour>
      <point x="291" y="297" type="line"/>
      <point x="196" y="473" type="line"/>
      <point x="648" y="473" type="line"/>
      <point x="488" y="297" type="line"/>
    </contour>
  </outline>
</glyph>
<glyph name="Gheupturn-cy" format="2">
  <advance width="510"/>
  <unicode hex="0490"/>
  <outline>
    <contour>
      <point x="20" y="0" type="line"/>
      <point x="110" y="0" type="line"/>
      <point x="243" y="630" type="line"/>
      <point x="566" y="630" type="line"/>
      <point x="614" y="857" type="line"/>
      <point x="534" y="857" type="line"/>
      <point x="504" y="710" type="line"/>
      <point x="171" y="710" type="line"/>
    </contour>
  </outline>
</glyph>
<glyph name="Ghestroke-cy" format="2">
  <advance width="528"/>
  <unicode hex="0492"/>
  <guideline x="2" y="334" angle="80.6901"/>
  <outline>
    <contour>
      <point x="-3" y="303" type="line"/>
      <point x="409" y="303" type="line"/>
      <point x="419" y="363" type="line"/>
      <point x="7" y="363" type="line"/>
    </contour>
    <component base="Ge-cy" xOffset="22"/>
  </outline>
</glyph>
<glyph name="ghestroke-cy" format="2">
  <advance width="446"/>
  <unicode hex="0493"/>
  <guideline x="289" y="453" angle="180"/>
  <outline>
    <contour>
      <point x="53" y="0" type="line"/>
      <point x="141" y="0" type="line"/>
      <point x="238" y="453" type="line"/>
      <point x="472" y="453" type="line"/>
      <point x="485" y="522" type="line"/>
      <point x="163" y="522" type="line"/>
    </contour>
    <contour>
      <point x="2" y="216" type="line"/>
      <point x="348" y="216" type="line"/>
      <point x="360" y="274" type="line"/>
      <point x="14" y="274" type="line"/>
    </contour>
  </outline>
</glyph>
<glyph name="Ghemiddlehook-cy" format="2">
  <advance width="657"/>
  <unicode hex="0494"/>
  <outline>
    <contour>
      <point x="309" y="-40" type="curve" smooth="yes"/>
      <point x="450" y="-40"/>
      <point x="550" y="33"/>
      <point x="575" y="179" type="curve" smooth="yes"/>
      <point x="600" y="331"/>
      <point x="514" y="423"/>
      <point x="373" y="423" type="curve" smooth="yes"/>
      <point x="305" y="423"/>
      <point x="233" y="406"/>
      <point x="165" y="361" type="curve"/>
      <point x="153" y="288" type="line"/>
      <point x="221" y="334"/>
      <point x="289" y="355"/>
      <point x="351" y="355" type="curve" smooth="yes"/>
      <point x="442" y="355"/>
      <point x="502" y="296"/>
      <point x="485" y="186" type="curve" smooth="yes"/>
      <point x="468" y="83"/>
      <point x="403" y="36"/>
      <point x="313" y="36" type="curve" smooth="yes"/>
      <point x="291" y="36"/>
      <point x="270" y="41"/>
      <point x="249" y="47" type="curve"/>
      <point x="218" y="-27" type="line"/>
      <point x="248" y="-36"/>
      <point x="279" y="-40"/>
    </contour>
    <component base="Ge-cy" xOffset="4"/>
  </outline>
</glyph>
<glyph name="ghemiddlehook-cy" format="2">
  <advance width="521"/>
  <unicode hex="0495"/>
  <guideline x="289" y="453" angle="180"/>
  <outline>
    <contour>
      <point x="13" y="0" type="line"/>
      <point x="101" y="0" type="line"/>
      <point x="198" y="453" type="line"/>
      <point x="431" y="453" type="line"/>
      <point x="446" y="522" type="line"/>
      <point x="124" y="522" type="line"/>
    </contour>
    <contour>
      <point x="202" y="-187" type="curve" smooth="yes"/>
      <point x="359" y="-187"/>
      <point x="423" y="-86"/>
      <point x="450" y="83" type="curve" smooth="yes"/>
      <point x="477" y="248"/>
      <point x="425" y="332"/>
      <point x="295" y="332" type="curve" smooth="yes"/>
      <point x="232" y="332"/>
      <point x="183" y="311"/>
      <point x="140" y="276" type="curve"/>
      <point x="127" y="207" type="line"/>
      <point x="162" y="240"/>
      <point x="202" y="259"/>
      <point x="255" y="259" type="curve" smooth="yes"/>
      <point x="350" y="259"/>
      <point x="384" y="202"/>
      <point x="364" y="77" type="curve" smooth="yes"/>
      <point x="344" y="-46"/>
      <point x="297" y="-114"/>
      <point x="207" y="-114" type="curve" smooth="yes"/>
      <point x="181" y="-114"/>
      <point x="161" y="-103"/>
      <point x="150" y="-95" type="curve"/>
      <point x="83" y="-140" type="line"/>
      <point x="95" y="-151"/>
      <point x="132" y="-187"/>
    </contour>
  </outline>
</glyph>
<glyph name="Kadescender-cy" format="2">
  <advance width="682"/>
  <unicode hex="049A"/>
  <outline>
    <contour>
      <point x="499" y="-135" type="line"/>
      <point x="577" y="-135" type="line"/>
      <point x="623" y="80" type="line"/>
      <point x="488" y="80" type="line"/>
      <point x="470" y="0" type="line"/>
      <point x="528" y="0" type="line"/>
    </contour>
    <component base="Ka-cy"/>
  </outline>
</glyph>
<glyph name="kadescender-cy" format="2">
  <advance width="537"/>
  <unicode hex="049B"/>
  <outline>
    <contour>
      <point x="365" y="-123" type="line"/>
      <point x="445" y="-123" type="line"/>
      <point x="488" y="77" type="line"/>
      <point x="363" y="77" type="line"/>
      <point x="348" y="0" type="line"/>
      <point x="392" y="0" type="line"/>
    </contour>
    <component base="ka-cy"/>
  </outline>
</glyph>
<glyph name="Kaverticalstroke-cy" format="2">
  <advance width="646"/>
  <unicode hex="049C"/>
  <outline>
    <contour>
      <point x="697" y="710" type="line"/>
      <point x="583" y="710" type="line"/>
      <point x="292" y="403" type="line"/>
      <point x="194" y="403" type="line"/>
      <point x="259" y="710" type="line"/>
      <point x="169" y="710" type="line"/>
      <point x="19" y="0" type="line"/>
      <point x="109" y="0" type="line"/>
      <point x="177" y="321" type="line"/>
      <point x="290" y="321" type="line"/>
      <point x="463" y="0" type="line"/>
      <point x="568" y="0" type="line"/>
      <point x="364" y="371" type="line"/>
    </contour>
    <component base="verticalbar-cy.case" xOffset="132" yOffset="57"/>
  </outline>
</glyph>
<glyph name="Kabashkir-cy" format="2">
  <advance width="728"/>
  <unicode hex="04A0"/>
  <guideline x="95" y="672" angle="78.1113"/>
  <outline>
    <contour>
      <point x="86" y="630" type="line"/>
      <point x="263" y="630" type="line"/>
      <point x="280" y="710" type="line"/>
      <point x="103" y="710" type="line"/>
    </contour>
    <component base="Ka-cy" xOffset="91"/>
  </outline>
</glyph>
<glyph name="Enghe-cy" format="2">
  <advance width="964"/>
  <unicode hex="04A4"/>
  <outline>
    <contour>
      <point x="697" y="630" type="line"/>
      <point x="1020" y="630" type="line"/>
      <point x="1037" y="710" type="line"/>
      <point x="628" y="710" type="line"/>
    </contour>
    <component base="H"/>
  </outline>
</glyph>
<glyph name="enghe-cy" format="2">
  <advance width="765"/>
  <unicode hex="04A5"/>
  <outline>
    <contour>
      <point x="555" y="444" type="line"/>
      <point x="788" y="444" type="line"/>
      <point x="805" y="522" type="line"/>
      <point x="487" y="522" type="line"/>
    </contour>
    <component base="en-cy"/>
  </outline>
</glyph>
<glyph name="Esdescender-cy" format="2">
  <advance width="711"/>
  <unicode hex="04AA"/>
  <outline>
    <contour>
      <point x="284" y="-135" type="line"/>
      <point x="362" y="-135" type="line"/>
      <point x="402" y="61" type="line"/>
      <point x="324" y="61" type="line"/>
    </contour>
    <component base="Es-cy"/>
  </outline>
</glyph>
<glyph name="esdescender-cy" format="2">
  <advance width="532"/>
  <unicode hex="04AB"/>
  <outline>
    <contour>
      <point x="170" y="-123" type="line"/>
      <point x="250" y="-123" type="line"/>
      <point x="284" y="36" type="line"/>
      <point x="204" y="35" type="line"/>
    </contour>
    <component base="es-cy" xOffset="1"/>
  </outline>
</glyph>
<glyph name="ustrait-cy" format="2">
  <advance width="492"/>
  <unicode hex="04AF"/>
  <outline>
    <contour>
      <point x="83" y="-213" type="line"/>
      <point x="171" y="-213" type="line"/>
      <point x="214" y="1" type="line"/>
      <point x="355" y="169"/>
      <point x="449" y="348"/>
      <point x="501" y="522" type="curve"/>
      <point x="420" y="522" type="line"/>
      <point x="370.929" y="377.566"/>
      <point x="304.715" y="231.417"/>
      <point x="195.958" y="87.523" type="curve"/>
      <point x="144" y="522" type="line"/>
      <point x="56" y="522" type="line"/>
      <point x="129" y="0" type="line"/>
    </contour>
  </outline>
</glyph>
<glyph name="Ustraitstroke-cy" format="2">
  <advance width="612"/>
  <unicode hex="04B0"/>
  <outline>
    <contour>
      <point x="124" y="192" type="line"/>
      <point x="433" y="192" type="line"/>
      <point x="446" y="252" type="line"/>
      <point x="137" y="252" type="line"/>
    </contour>
    <component base="Ustrait-cy"/>
  </outline>
</glyph>
<glyph name="Chekhakassian-cy" format="2">
  <advance width="674"/>
  <unicode hex="04CB"/>
  <outline>
    <contour>
      <point x="308" y="-135" type="line"/>
      <point x="386" y="-135" type="line"/>
      <point x="414" y="0" type="line"/>
      <point x="491" y="0" type="line"/>
      <point x="508" y="80" type="line"/>
      <point x="352" y="80" type="line"/>
    </contour>
    <component base="Che-cy"/>
  </outline>
</glyph>
<glyph name="chekhakassian-cy" format="2">
  <advance width="556"/>
  <unicode hex="04CC"/>
  <outline>
    <contour>
      <point x="222" y="-134" type="line"/>
      <point x="302" y="-134" type="line"/>
      <point x="330" y="0" type="line"/>
      <point x="409" y="0" type="line"/>
      <point x="420" y="52" type="line"/>
      <point x="260" y="52" type="line"/>
    </contour>
    <component base="che-cy" xOffset="5"/>
  </outline>
</glyph>
<glyph name="obarred-cy" format="2">
  <advance width="599"/>
  <unicode hex="04E9"/>
  <outline>
    <contour>
      <point x="79" y="234" type="line"/>
      <point x="513" y="234" type="line"/>
      <point x="516" y="299" type="line"/>
      <point x="81" y="299" type="line"/>
    </contour>
    <component base="o-cy" xOffset="-12"/>
  </outline>
</glyph>
<glyph name="gedescender-cy" format="2">
  <advance width="491"/>
  <unicode hex="04F7"/>
  <outline>
    <contour>
      <point x="321" y="-94" type="line"/>
      <point x="401" y="-94" type="line"/>
      <point x="437" y="76" type="line"/>
      <point x="349" y="30" type="line"/>
    </contour>
    <component base="ge-cy"/>
  </outline>
</glyph>
<glyph name="zeroinferior" format="2">
  <advance width="450"/>
  <unicode hex="2080"/>
  <outline>
    <contour>
      <point x="38" y="-85"/>
      <point x="144" y="-85" type="curve" smooth="yes"/>
      <point x="276" y="-85"/>
      <point x="380" y="45"/>
      <point x="380" y="156" type="curve" smooth="yes"/>
      <point x="380" y="235"/>
      <point x="336" y="326"/>
      <point x="231" y="326" type="curve" smooth="yes"/>
      <point x="99" y="326"/>
      <point x="-7" y="195"/>
      <point x="-7" y="84" type="curve" smooth="yes"/>
      <point x="-7" y="4"/>
    </contour>
    <contour>
      <point x="50" y="27"/>
      <point x="50" y="86" type="curve" smooth="yes"/>
      <point x="50" y="159"/>
      <point x="122" y="271"/>
      <point x="225" y="271" type="curve" smooth="yes"/>
      <point x="296" y="271"/>
      <point x="324" y="209"/>
      <point x="324" y="149" type="curve" smooth="yes"/>
      <point x="324" y="76"/>
      <point x="258" y="-30"/>
      <point x="155" y="-30" type="curve" smooth="yes"/>
      <point x="82" y="-30"/>
    </contour>
  </outline>
</glyph>
<glyph name="nineinferior" format="2">
  <advance width="400"/>
  <unicode hex="2089"/>
  <outline>
    <contour>
      <point x="97" y="-85" type="curve" smooth="yes"/>
      <point x="230" y="-85"/>
      <point x="322" y="36"/>
      <point x="322" y="193" type="curve" smooth="yes"/>
      <point x="322" y="278"/>
      <point x="274" y="329"/>
      <point x="197" y="329" type="curve" smooth="yes"/>
      <point x="97" y="329"/>
      <point x="6" y="255"/>
      <point x="6" y="166" type="curve" smooth="yes"/>
      <point x="6" y="101"/>
      <point x="55" y="52"/>
      <point x="131" y="52" type="curve" smooth="yes"/>
      <point x="177" y="52"/>
      <point x="235" y="72"/>
      <point x="262" y="107" type="curve"/>
      <point x="240" y="16"/>
      <point x="178" y="-33"/>
      <point x="111" y="-33" type="curve" smooth="yes"/>
      <point x="68" y="-33"/>
      <point x="33" y="-12"/>
      <point x="23" y="21" type="curve"/>
      <point x="-18" y="-16" type="line"/>
      <point x="-2" y="-60"/>
      <point x="42" y="-85"/>
    </contour>
    <contour>
      <point x="146" y="101" type="curve" smooth="yes"/>
      <point x="95" y="101"/>
      <point x="59" y="135"/>
      <point x="59" y="177" type="curve" smooth="yes"/>
      <point x="59" y="230"/>
      <point x="121" y="278"/>
      <point x="184" y="278" type="curve" smooth="yes"/>
      <point x="235" y="278"/>
      <point x="272" y="243"/>
      <point x="272" y="201" type="curve" smooth="yes"/>
      <point x="272" y="148"/>
      <point x="210" y="101"/>
    </contour>
  </outline>
</glyph>
<glyph name="euro" format="2">
  <advance width="757"/>
  <unicode hex="20AC"/>
  <outline>
    <contour>
      <point x="25" y="259" type="line"/>
      <point x="452" y="259" type="line"/>
      <point x="485" y="311" type="line"/>
      <point x="58" y="311" type="line"/>
    </contour>
    <contour>
      <point x="542" y="422" type="line"/>
      <point x="103" y="422" type="line"/>
      <point x="70" y="370" type="line"/>
      <point x="509" y="370" type="line"/>
    </contour>
    <contour>
      <point x="129" y="489"/>
      <point x="129" y="294" type="curve" smooth="yes"/>
      <point x="129" y="141"/>
      <point x="219" y="-6"/>
      <point x="377" y="-6" type="curve" smooth="yes"/>
      <point x="482" y="-6"/>
      <point x="616" y="53"/>
      <point x="681" y="159" type="curve"/>
      <point x="615" y="200" type="line"/>
      <point x="558" y="112"/>
      <point x="467" y="75"/>
      <point x="398" y="75" type="curve" smooth="yes"/>
      <point x="287" y="75"/>
      <point x="220" y="178"/>
      <point x="220" y="299" type="curve" smooth="yes"/>
      <point x="220" y="450"/>
      <point x="341" y="633"/>
      <point x="514" y="633" type="curve" smooth="yes"/>
      <point x="581" y="633"/>
      <point x="653" y="603"/>
      <point x="673" y="513" type="curve"/>
      <point x="754" y="559" type="line"/>
      <point x="731" y="650"/>
      <point x="655" y="714"/>
      <point x="535" y="714" type="curve" smooth="yes"/>
      <point x="301" y="714"/>
    </contour>
  </outline>
</glyph>
<glyph name="ruble" format="2">
  <advance width="600"/>
  <unicode hex="20BD"/>
  <outline>
    <contour>
      <point x="413" y="710" type="curve" smooth="yes"/>
      <point x="171" y="710" type="line"/>
      <point x="91" y="335" type="line"/>
      <point x="16" y="335" type="line"/>
      <point x="-1" y="255" type="line"/>
      <point x="74" y="255" type="line"/>
      <point x="61" y="191" type="line"/>
      <point x="-15" y="191" type="line"/>
      <point x="-32" y="111" type="line"/>
      <point x="44" y="111" type="line"/>
      <point x="20" y="0" type="line"/>
      <point x="110" y="0" type="line"/>
      <point x="134" y="111" type="line"/>
      <point x="249" y="111" type="line"/>
      <point x="266" y="191" type="line"/>
      <point x="150" y="191" type="line"/>
      <point x="164" y="255" type="line"/>
      <point x="321" y="255" type="line" smooth="yes"/>
      <point x="459" y="255"/>
      <point x="575" y="393"/>
      <point x="575" y="522" type="curve" smooth="yes"/>
      <point x="575" y="618"/>
      <point x="515" y="710"/>
    </contour>
    <contour>
      <point x="333" y="335" type="curve" smooth="yes"/>
      <point x="181" y="335" type="line"/>
      <point x="244" y="630" type="line"/>
      <point x="390" y="630" type="line" smooth="yes"/>
      <point x="444" y="630"/>
      <point x="483" y="581"/>
      <point x="483" y="514" type="curve" smooth="yes"/>
      <point x="483" y="423"/>
      <point x="414" y="335"/>
    </contour>
  </outline>
</glyph>
<glyph name="divisionslash" format="2">
  <advance width="579"/>
  <unicode hex="2215"/>
  <outline>
    <contour>
      <point x="-61" y="38" type="line"/>
      <point x="-18" y="-5" type="line"/>
      <point x="664" y="672" type="line"/>
      <point x="621" y="715" type="line"/>
    </contour>
  </outline>
</glyph>
<glyph name="infinity" format="2">
  <advance width="688"/>
  <unicode hex="221E"/>
  <outline>
    <contour>
      <point x="288" y="517"/>
      <point x="213" y="517" type="curve" smooth="yes"/>
      <point x="122" y="517"/>
      <point x="53" y="443"/>
      <point x="53" y="352" type="curve" smooth="yes"/>
      <point x="53" y="261"/>
      <point x="132" y="186"/>
      <point x="213" y="186" type="curve" smooth="yes"/>
      <point x="291" y="186"/>
      <point x="328" y="224"/>
      <point x="355" y="269" type="curve"/>
      <point x="383" y="224"/>
      <point x="420" y="186"/>
      <point x="492" y="186" type="curve" smooth="yes"/>
      <point x="583" y="186"/>
      <point x="652" y="260"/>
      <point x="652" y="351" type="curve" smooth="yes"/>
      <point x="652" y="442"/>
      <point x="590" y="517"/>
      <point x="493" y="517" type="curve" smooth="yes"/>
      <point x="417" y="517"/>
      <point x="382" y="475"/>
      <point x="353" y="425" type="curve"/>
      <point x="324" y="475"/>
    </contour>
    <contour>
      <point x="270" y="256"/>
      <point x="213" y="256" type="curve" smooth="yes"/>
      <point x="170" y="256"/>
      <point x="123" y="284"/>
      <point x="123" y="352" type="curve" smooth="yes"/>
      <point x="123" y="419"/>
      <point x="170" y="446"/>
      <point x="213" y="446" type="curve" smooth="yes"/>
      <point x="271" y="446"/>
      <point x="299" y="402"/>
      <point x="325" y="350" type="curve"/>
      <point x="299" y="299"/>
    </contour>
    <contour>
      <point x="536" y="256"/>
      <point x="493" y="256" type="curve" smooth="yes"/>
      <point x="437" y="256"/>
      <point x="408" y="297"/>
      <point x="383" y="346" type="curve"/>
      <point x="407" y="400"/>
      <point x="433" y="446"/>
      <point x="493" y="446" type="curve" smooth="yes"/>
      <point x="536" y="446"/>
      <point x="582" y="419"/>
      <point x="582" y="352" type="curve" smooth="yes"/>
      <point x="582" y="284"/>
    </contour>
  </outline>
</glyph>
<glyph name="notequal" format="2">
  <advance width="485"/>
  <unicode hex="2260"/>
  <outline>
    <contour>
      <point x="104" y="79" type="line"/>
      <point x="142" y="57" type="line"/>
      <point x="369" y="473" type="line"/>
      <point x="331" y="495" type="line"/>
    </contour>
    <contour>
      <point x="84" y="239" type="line"/>
      <point x="84" y="179" type="line"/>
      <point x="389" y="179" type="line"/>
      <point x="389" y="239" type="line"/>
    </contour>
    <contour>
      <point x="84" y="373" type="line"/>
      <point x="84" y="313" type="line"/>
      <point x="389" y="313" type="line"/>
      <point x="389" y="373" type="line"/>
    </contour>
  </outline>
</glyph>
<glyph name="lessequal" format="2">
  <advance width="460"/>
  <unicode hex="2264"/>
  <outline>
    <contour>
      <point x="51" y="51" type="line"/>
      <point x="383" y="51" type="line"/>
      <point x="383" y="123" type="line"/>
      <point x="51" y="123" type="line"/>
    </contour>
    <contour>
      <point x="50" y="390" type="line"/>
      <point x="50" y="344" type="line"/>
      <point x="380" y="184" type="line"/>
      <point x="380" y="272" type="line"/>
      <point x="178" y="369" type="line"/>
      <point x="380" y="469" type="line"/>
      <point x="380" y="553" type="line"/>
    </contour>
  </outline>
</glyph>
<glyph name="lozenge" format="2">
  <advance width="523"/>
  <unicode hex="25CA"/>
  <outline>
    <contour>
      <point x="322" y="730" type="line"/>
      <point x="228" y="730" type="line"/>
      <point x="42" y="366" type="line"/>
      <point x="228" y="0" type="line"/>
      <point x="322" y="0" type="line"/>
      <point x="508" y="366" type="line"/>
    </contour>
    <contour>
      <point x="429" y="354" type="line"/>
      <point x="283" y="65" type="line"/>
      <point x="129" y="375" type="line"/>
      <point x="274" y="662" type="line"/>
    </contour>
  </outline>
</glyph>
<glyph name="De-cy.loclBGR" format="2">
  <advance width="751"/>
  <outline>
    <contour>
      <point x="8" y="28" type="line"/>
      <point x="101" y="28" type="line"/>
      <point x="446" y="604" type="line"/>
      <point x="537" y="28" type="line"/>
      <point x="627" y="28" type="line"/>
      <point x="510" y="710" type="line"/>
      <point x="427" y="710" type="line"/>
    </contour>
    <contour>
      <point x="-74" y="-136" type="line"/>
      <point x="6" y="-136" type="line"/>
      <point x="34" y="0" type="line"/>
      <point x="599" y="0" type="line"/>
      <point x="571" y="-136" type="line"/>
      <point x="651" y="-136" type="line"/>
      <point x="696" y="80" type="line"/>
      <point x="-29" y="80" type="line"/>
    </contour>
  </outline>
</glyph>
<glyph name="Ef-cy.loclBGR" format="2">
  <advance width="831"/>
  <outline>
    <contour>
      <point x="296" y="-62" type="line"/>
      <point x="382" y="-62" type="line"/>
      <point x="393" y="-5" type="line"/>
      <point x="599" y="-11"/>
      <point x="770" y="134"/>
      <point x="802" y="354" type="curve" smooth="yes"/>
      <point x="830" y="558"/>
      <point x="711" y="693"/>
      <point x="546" y="713" type="curve"/>
      <point x="558" y="772" type="line"/>
      <point x="473" y="772" type="line"/>
      <point x="461" y="715" type="line"/>
      <point x="253" y="721"/>
      <point x="83" y="578"/>
      <point x="51" y="355" type="curve" smooth="yes"/>
      <point x="22" y="152"/>
      <point x="141" y="17"/>
      <point x="308" y="-3" type="curve"/>
    </contour>
    <contour>
      <point x="326" y="71" type="line"/>
      <point x="205" y="85"/>
      <point x="114" y="186"/>
      <point x="137" y="355" type="curve" smooth="yes"/>
      <point x="162" y="530"/>
      <point x="287" y="646"/>
      <point x="447" y="641" type="curve"/>
    </contour>
    <contour>
      <point x="407" y="69" type="curve"/>
      <point x="528" y="639" type="line"/>
      <point x="649" y="624"/>
      <point x="739" y="523"/>
      <point x="716" y="354" type="curve" smooth="yes"/>
      <point x="691" y="180"/>
      <point x="564" y="65"/>
    </contour>
  </outline>
</glyph>
<glyph name="El-cy.loclBGR" format="2">
  <advance width="647"/>
  <outline>
    <contour>
      <point x="-47" y="0" type="line"/>
      <point x="52" y="0" type="line"/>
      <point x="391" y="601" type="line"/>
      <point x="480" y="0" type="line"/>
      <point x="573" y="0" type="line"/>
      <point x="454" y="710" type="line"/>
      <point x="370" y="710" type="line"/>
    </contour>
  </outline>
</glyph>
<glyph name="b.sc" format="2">
  <advance width="563"/>
  <outline>
    <contour>
      <point x="131" y="551" type="line"/>
      <point x="14" y="0" type="line"/>
      <point x="286" y="0" type="line" smooth="yes"/>
      <point x="392" y="0"/>
      <point x="491" y="66"/>
      <point x="491" y="170" type="curve" smooth="yes"/>
      <point x="491" y="225"/>
      <point x="462" y="267"/>
      <point x="411" y="283" type="curve"/>
      <point x="478" y="309"/>
      <point x="523" y="372"/>
      <point x="523" y="436" type="curve" smooth="yes"/>
      <point x="523" y="495"/>
      <point x="488" y="551"/>
      <point x="420" y="551" type="curve" smooth="yes"/>
    </contour>
    <contour>
      <point x="300" y="69" type="curve" smooth="yes"/>
      <point x="109" y="69" type="line"/>
      <point x="146" y="246" type="line"/>
      <point x="344" y="246" type="line" smooth="yes"/>
      <point x="385" y="246"/>
      <point x="411" y="212"/>
      <point x="411" y="173" type="curve" smooth="yes"/>
      <point x="411" y="118"/>
      <point x="357" y="69"/>
    </contour>
    <contour>
      <point x="336" y="311" type="curve" smooth="yes"/>
      <point x="160" y="311" type="line"/>
      <point x="196" y="481" type="line"/>
      <point x="376" y="481" type="line"/>
      <point x="415" y="481"/>
      <point x="440" y="453"/>
      <point x="440" y="413" type="curve" smooth="yes"/>
      <point x="440" y="356"/>
      <point x="390" y="311"/>
    </contour>
  </outline>
</glyph>
<glyph name="caroncomb.alt" format="2">
  <anchor x="148" y="522" name="_topright"/>
  <outline>
    <contour>
      <point x="126" y="629" type="line"/>
      <point x="180" y="609" type="line"/>
      <point x="289" y="730" type="line"/>
      <point x="202" y="730" type="line"/>
    </contour>
  </outline>
</glyph>
<glyph name="cedi" format="2">
  <advance width="653"/>
  <outline>
    <contour>
      <point x="266" y="39" type="line"/>
      <point x="231" y="-107" type="line"/>
      <point x="282" y="-107" type="line"/>
      <point x="317" y="38" type="line"/>
    </contour>
    <contour>
      <point x="446" y="815" type="line"/>
      <point x="411" y="665" type="line"/>
      <point x="464" y="672" type="line"/>
      <point x="498" y="815" type="line"/>
    </contour>
    <component base="C"/>
  </outline>
</glyph>
<glyph name="descender-cy.case" format="2">
  <advance width="204"/>
  <anchor x="-35" y="0" name="_bottomright"/>
  <outline>
    <contour>
      <point x="14" y="-135" type="line"/>
      <point x="92" y="-135" type="line"/>
      <point x="138" y="80" type="line"/>
      <point x="-17" y="80" type="line"/>
      <point x="-35" y="0" type="line"/>
      <point x="43" y="0" type="line"/>
    </contour>
  </outline>
</glyph>
<glyph name="descender-cy" format="2">
  <advance width="226"/>
  <anchor x="-55" y="0" name="_bottomright"/>
  <outline>
    <contour>
      <point x="12" y="-123" type="line"/>
      <point x="92" y="-123" type="line"/>
      <point x="135" y="77" type="line"/>
      <point x="-39" y="77" type="line"/>
      <point x="-55" y="0" type="line"/>
      <point x="38" y="0" type="line"/>
    </contour>
  </outline>
</glyph>
<glyph name="five.dnom" format="2">
  <advance width="369"/>
  <outline>
    <contour>
      <point x="47" y="-5"/>
      <point x="111" y="-5" type="curve" smooth="yes"/>
      <point x="212" y="-5"/>
      <point x="303" y="61"/>
      <point x="303" y="152" type="curve" smooth="yes"/>
      <point x="303" y="216"/>
      <point x="253" y="260"/>
      <point x="179" y="260" type="curve" smooth="yes"/>
      <point x="144" y="260"/>
      <point x="113" y="250"/>
      <point x="90" y="234" type="curve"/>
      <point x="143" y="351" type="line"/>
      <point x="321" y="351" type="line"/>
      <point x="333" y="406" type="line"/>
      <point x="114" y="406" type="line"/>
      <point x="98" y="364"/>
      <point x="35" y="226"/>
      <point x="12" y="170" type="curve"/>
      <point x="62" y="170" type="line"/>
      <point x="86" y="198"/>
      <point x="128" y="217"/>
      <point x="165" y="217" type="curve" smooth="yes"/>
      <point x="206" y="217"/>
      <point x="246" y="193"/>
      <point x="246" y="147" type="curve" smooth="yes"/>
      <point x="246" y="87"/>
      <point x="189" y="47"/>
      <point x="125" y="47" type="curve" smooth="yes"/>
      <point x="76" y="47"/>
      <point x="40" y="69"/>
      <point x="23" y="102" type="curve"/>
      <point x="-19" y="68" type="line"/>
      <point x="-2" y="24"/>
    </contour>
  </outline>
</glyph>
<glyph name="h.sc" format="2">
  <advance width="622"/>
  <anchor x="308" y="707" name="top"/>
  <outline>
    <contour>
      <point x="131" y="551" type="line"/>
      <point x="14" y="0" type="line"/>
      <point x="94" y="0" type="line"/>
      <point x="146" y="246" type="line"/>
      <point x="453" y="246" type="line"/>
      <point x="401" y="0" type="line"/>
      <point x="481" y="0" type="line"/>
      <point x="598" y="551" type="line"/>
      <point x="518" y="551" type="line"/>
      <point x="469" y="318" type="line"/>
      <point x="161" y="318" type="line"/>
      <point x="211" y="551" type="line"/>
    </contour>
  </outline>
</glyph>
<glyph name="iu-cy.loclBGR" format="2">
  <advance width="816"/>
  <outline>
    <contour>
      <point x="5" y="0" type="line"/>
      <point x="93" y="0" type="line"/>
      <point x="141" y="226" type="line"/>
      <point x="271" y="226" type="line"/>
      <point x="288" y="295" type="line"/>
      <point x="155" y="295" type="line"/>
      <point x="248" y="730" type="line"/>
      <point x="160" y="730" type="line"/>
    </contour>
    <component base="o-cy" xOffset="205"/>
  </outline>
</glyph>
<glyph name="kip" format="2">
  <advance width="664"/>
  <outline>
    <contour>
      <point x="43" y="112" type="line"/>
      <point x="596" y="112" type="line"/>
      <point x="611" y="180" type="line"/>
      <point x="58" y="180" type="line"/>
    </contour>
    <component base="K" xOffset="39"/>
  </outline>
</glyph>
<glyph name="manat" format="2">
  <advance width="728"/>
  <outline>
    <contour>
      <point x="429" y="590" type="curve" smooth="yes"/>
      <point x="213" y="590"/>
      <point x="104" y="430"/>
      <point x="68" y="264" type="curve" smooth="yes"/>
      <point x="9" y="-5" type="line"/>
      <point x="98" y="-5" type="line"/>
      <point x="157" y="264" type="line" smooth="yes"/>
      <point x="184" y="388"/>
      <point x="257" y="509"/>
      <point x="410" y="509" type="curve" smooth="yes"/>
      <point x="565" y="509"/>
      <point x="583" y="385"/>
      <point x="557" y="264" type="curve" smooth="yes"/>
      <point x="498" y="-5" type="line"/>
      <point x="587" y="-5" type="line"/>
      <point x="646" y="264" type="line" smooth="yes"/>
      <point x="685" y="440"/>
      <point x="637" y="590"/>
    </contour>
    <contour>
      <point x="430" y="741" type="line"/>
      <point x="310" y="191" type="line"/>
      <point x="367" y="205" type="line"/>
      <point x="488" y="755" type="line"/>
    </contour>
  </outline>
</glyph>
<glyph name="minute" format="2">
  <advance width="215"/>
  <outline>
    <contour>
      <point x="118" y="501" type="line"/>
      <point x="165" y="501" type="line"/>
      <point x="245" y="718" type="line"/>
      <point x="176" y="718" type="line"/>
    </contour>
  </outline>
</glyph>
<glyph name="nine.numr" format="2">
  <advance width="399"/>
  <outline>
    <contour>
      <point x="188" y="316" type="curve" smooth="yes"/>
      <point x="321" y="316"/>
      <point x="413" y="437"/>
      <point x="413" y="594" type="curve" smooth="yes"/>
      <point x="413" y="679"/>
      <point x="365" y="730"/>
      <point x="288" y="730" type="curve" smooth="yes"/>
      <point x="188" y="730"/>
      <point x="97" y="656"/>
      <point x="97" y="567" type="curve" smooth="yes"/>
      <point x="97" y="502"/>
      <point x="146" y="453"/>
      <point x="222" y="453" type="curve" smooth="yes"/>
      <point x="268" y="453"/>
      <point x="326" y="473"/>
      <point x="353" y="508" type="curve"/>
      <point x="331" y="417"/>
      <point x="269" y="368"/>
      <point x="202" y="368" type="curve" smooth="yes"/>
      <point x="159" y="368"/>
      <point x="124" y="389"/>
      <point x="114" y="422" type="curve"/>
      <point x="73" y="385" type="line"/>
      <point x="89" y="341"/>
      <point x="133" y="316"/>
    </contour>
    <contour>
      <point x="237" y="502" type="curve" smooth="yes"/>
      <point x="186" y="502"/>
      <point x="150" y="536"/>
      <point x="150" y="578" type="curve" smooth="yes"/>
      <point x="150" y="631"/>
      <point x="212" y="679"/>
      <point x="275" y="679" type="curve" smooth="yes"/>
      <point x="326" y="679"/>
      <point x="363" y="644"/>
      <point x="363" y="602" type="curve" smooth="yes"/>
      <point x="363" y="549"/>
      <point x="301" y="502"/>
    </contour>
  </outline>
</glyph>
<glyph name="one.dnom" format="2">
  <advance width="290"/>
  <outline>
    <contour>
      <point x="-5" y="54" type="line"/>
      <point x="-16" y="0" type="line"/>
      <point x="208" y="0" type="line"/>
      <point x="219" y="54" type="line"/>
      <point x="138" y="54" type="line"/>
      <point x="214" y="411" type="line"/>
      <point x="158" y="411" type="line"/>
      <point x="157" y="408"/>
      <point x="90" y="355"/>
      <point x="45" y="355" type="curve"/>
      <point x="33" y="300" type="line"/>
      <point x="68" y="300"/>
      <point x="127" y="331"/>
      <point x="145" y="349" type="curve"/>
      <point x="82" y="54" type="line"/>
    </contour>
  </outline>
</glyph>
<glyph name="seven.lf" format="2">
  <advance width="514"/>
  <outline>
    <contour>
      <point x="440" y="629" type="line"/>
      <point x="7" y="0" type="line"/>
      <point x="106" y="0" type="line"/>
      <point x="597" y="710" type="line"/>
      <point x="115" y="710" type="line"/>
      <point x="98" y="629" type="line"/>
    </contour>
  </outline>
</glyph>
<glyph name="six.numr" format="2">
  <advance width="399"/>
  <outline>
    <contour>
      <point x="401" y="538"/>
      <point x="401" y="465" type="curve" smooth="yes"/>
      <point x="401" y="386"/>
      <point x="317" y="315"/>
      <point x="214" y="315" type="curve" smooth="yes"/>
      <point x="133" y="315"/>
      <point x="76" y="366"/>
      <point x="76" y="452" type="curve" smooth="yes"/>
      <point x="76" y="608"/>
      <point x="168" y="729"/>
      <point x="302" y="729" type="curve" smooth="yes"/>
      <point x="359" y="729"/>
      <point x="405" y="704"/>
      <point x="421" y="660" type="curve"/>
      <point x="381" y="623" type="line"/>
      <point x="370" y="656"/>
      <point x="333" y="677"/>
      <point x="289" y="677" type="curve" smooth="yes"/>
      <point x="219" y="677"/>
      <point x="162" y="625"/>
      <point x="142" y="533" type="curve"/>
      <point x="168" y="569"/>
      <point x="222" y="591"/>
      <point x="269" y="591" type="curve" smooth="yes"/>
      <point x="349" y="591"/>
    </contour>
    <contour>
      <point x="173" y="361"/>
      <point x="223" y="361" type="curve" smooth="yes"/>
      <point x="288" y="361"/>
      <point x="351" y="409"/>
      <point x="351" y="462" type="curve" smooth="yes"/>
      <point x="351" y="505"/>
      <point x="314" y="539"/>
      <point x="260" y="539" type="curve" smooth="yes"/>
      <point x="193" y="539"/>
      <point x="130" y="492"/>
      <point x="130" y="439" type="curve" smooth="yes"/>
      <point x="130" y="396"/>
    </contour>
  </outline>
</glyph>
<glyph name="t.ss07" format="2">
  <advance width="330"/>
  <outline>
    <contour>
      <point x="130" y="442" type="line"/>
      <point x="36" y="0" type="line"/>
      <point x="126" y="0" type="line"/>
      <point x="220" y="442" type="line"/>
      <point x="337" y="442" type="line"/>
      <point x="354" y="522" type="line"/>
      <point x="237" y="522" type="line"/>
      <point x="274" y="696" type="line"/>
      <point x="184" y="696" type="line"/>
      <point x="147" y="522" type="line"/>
      <point x="74" y="522" type="line"/>
      <point x="57" y="442" type="line"/>
    </contour>
  </outline>
</glyph>
<glyph name="verticalbar-cy.case" format="2">
  <advance width="243"/>
  <anchor x="132" y="310" name="_center"/>
  <outline>
    <contour>
      <point x="55" y="153" type="line"/>
      <point x="115" y="153" type="line"/>
      <point x="186" y="467" type="line"/>
      <point x="126" y="467" type="line"/>
    </contour>
  </outline>
</glyph>
<glyph name="verticalbar-cy" format="2">
  <advance width="180"/>
  <anchor x="82" y="226" name="_center"/>
  <outline>
    <contour>
      <point x="22" y="88" type="line"/>
      <point x="77" y="88" type="line"/>
      <point x="135" y="356" type="line"/>
      <point x="80" y="356" type="line"/>
    </contour>
  </outline>
</glyph>
<glyph name="y.ss10" format="2">
  <advance width="517"/>
  <outline>
    <contour>
      <point x="154" y="0" type="line"/>
      <point x="122" y="-51"/>
      <point x="73" y="-138"/>
      <point x="27" y="-213" type="curve"/>
      <point x="127" y="-213" type="line"/>
      <point x="548" y="522" type="line"/>
      <point x="464" y="522" type="line"/>
      <point x="219" y="79" type="line"/>
      <point x="148" y="522" type="line"/>
      <point x="56" y="522" type="line"/>
    </contour>
  </outline>
</glyph>
